<svg xmlns="http://www.w3.org/2000/svg" viewBox="0 0 26 26"><defs><style>.cls-1{fill:#f66;}</style></defs><title>in</title><g id="Слой_2" data-name="Слой 2"><g id="Слой_1-2" data-name="Слой 1"><g id="Page-1"><g id="Evil-Icons"><g id="Icon-Instagram"><g id="Page-1-2" data-name="Page-1"><path id="Fill-1" class="cls-1" d="M13,0C9.47,0,9,0,7.64.08a9.54,9.54,0,0,0-3.16.6,6.37,6.37,0,0,0-2.3,1.5,6.37,6.37,0,0,0-1.5,2.3,9.54,9.54,0,0,0-.6,3.16C0,9,0,9.47,0,13s0,4,.08,5.36a9.54,9.54,0,0,0,.6,3.16,6.37,6.37,0,0,0,1.5,2.3,6.37,6.37,0,0,0,2.3,1.5,9.54,9.54,0,0,0,3.16.6C9,26,9.47,26,13,26s4,0,5.36-.08a9.54,9.54,0,0,0,3.16-.6,6.65,6.65,0,0,0,3.8-3.8,9.54,9.54,0,0,0,.6-3.16C26,17,26,16.53,26,13s0-4-.08-5.36a9.54,9.54,0,0,0-.6-3.16,6.37,6.37,0,0,0-1.5-2.3,6.37,6.37,0,0,0-2.3-1.5,9.54,9.54,0,0,0-3.16-.6C17,0,16.53,0,13,0m0,2.34c3.47,0,3.88,0,5.25.08a7.2,7.2,0,0,1,2.41.45,4,4,0,0,1,1.49,1,4,4,0,0,1,1,1.49,7.2,7.2,0,0,1,.45,2.41c.06,1.37.08,1.78.08,5.25s0,3.88-.08,5.25a7.2,7.2,0,0,1-.45,2.41,4.3,4.3,0,0,1-2.47,2.47,7.19,7.19,0,0,1-2.41.45c-1.37.06-1.78.08-5.25.08s-3.88,0-5.25-.08a7.19,7.19,0,0,1-2.41-.45,4,4,0,0,1-1.49-1,4,4,0,0,1-1-1.49,7.2,7.2,0,0,1-.45-2.41c-.06-1.37-.08-1.78-.08-5.25s0-3.88.08-5.25a7.2,7.2,0,0,1,.45-2.41,4,4,0,0,1,1-1.49,4,4,0,0,1,1.49-1,7.19,7.19,0,0,1,2.41-.45c1.37-.06,1.78-.08,5.25-.08"/><path id="Fill-4" class="cls-1" d="M13,6a7,7,0,1,0,7,7,7,7,0,0,0-7-7m0,11.5A4.5,4.5,0,1,1,17.5,13,4.5,4.5,0,0,1,13,17.5"/><path id="Fill-6" class="cls-1" d="M21.7,6.1a1.6,1.6,0,1,1-1.6-1.6,1.6,1.6,0,0,1,1.6,1.6"/></g></g></g></g></g></g></svg>