<?xml version="1.0" encoding="utf-8"?>
<!-- Generator: Adobe Illustrator 21.1.0, SVG Export Plug-In . SVG Version: 6.00 Build 0)  -->
<svg version="1.1"
	 id="svg2" xmlns:cc="http://creativecommons.org/ns#" xmlns:dc="http://purl.org/dc/elements/1.1/" xmlns:inkscape="http://www.inkscape.org/namespaces/inkscape" xmlns:rdf="http://www.w3.org/1999/02/22-rdf-syntax-ns#" xmlns:sodipodi="http://sodipodi.sourceforge.net/DTD/sodipodi-0.dtd" xmlns:svg="http://www.w3.org/2000/svg"
	 xmlns="http://www.w3.org/2000/svg" xmlns:xlink="http://www.w3.org/1999/xlink" x="0px" y="0px" viewBox="0 0 32 32"
	 style="enable-background:new 0 0 32 32;" xml:space="preserve">
<script  id="script3301" xlink:href=""></script>
<script  id="script3299" xlink:href=""></script>
<g id="g3140" transform="matrix(0.64050449,0,0,0.64031522,0,25.600003)">
	<path id="path3144" d="M12.5,1.4l0.1-32.8c0-0.2,0.1-0.4,0.2-0.6c0.1-0.1,0.3-0.2,0.6-0.2h14.2c4.9,0,9.4,2.6,9.4,8
		c0,3.3-0.9,5.1-2.6,6.6l-0.8,0.6l0.6,0.2c0.2,0.1,0.4,0.2,0.6,0.3c1,0.5,1.6,1,2.2,1.7c1.8,1.9,2.1,3.8,2.1,6.6
		c0,7-6.4,10.3-12.2,10.3H13.3C12.8,2.2,12.5,1.8,12.5,1.4z M37.5-8.1c0-2.6-0.3-4-1.7-5.5c-0.5-0.6-1-1-1.8-1.4
		c-0.4-0.2-2-0.7-2.5-1l-0.1,0c-0.5-0.3-0.4-1,0-1.3c2.7-1.7,3.9-3,3.9-6.7c0-4.3-3.4-6.5-7.9-6.5H14.1L14.1,0.6h12.7
		C32.2,0.6,37.5-2.4,37.5-8.1z M21-3.9c-0.4,0-0.8-0.3-0.8-0.8l0-8.2c0-0.4,0.3-0.8,0.8-0.8c1.8,0,4.3-0.2,6.2,0.2
		c2.1,0.5,3.7,1.8,3.6,4.7c0,2.8-1.6,4.1-3.6,4.6C25.3-3.7,22.9-3.9,21-3.9z M26.8-5.7c1.5-0.4,2.4-1.1,2.5-3.1
		c0-2.1-0.9-2.8-2.4-3.1c-0.8-0.2-1.8-0.2-2.8-0.2l-2.3,0v6.6l-0.8,0C23.1-5.4,25.2-5.3,26.8-5.7z M21-17.7c-0.4,0-0.8-0.3-0.8-0.8
		v-4.3l0-2.6c0-0.4,0.3-0.8,0.8-0.8c1.5,0,3.4-0.2,4.9,0.2c1.7,0.4,2.9,1.5,2.9,3.8c0,2.4-1.1,3.6-2.7,4.1
		C24.7-17.6,22.8-17.7,21-17.7z M25.7-19.5c1-0.3,1.6-0.9,1.6-2.6c0-1.5-0.7-2-1.7-2.3c-0.9-0.2-2.1-0.2-3.3-0.2l-0.5,0l0,1.8l0,3.5
		l-0.8,0C23-19.3,24.6-19.2,25.7-19.5z"/>
</g>
</svg>
