<svg xmlns="http://www.w3.org/2000/svg" xmlns:xlink="http://www.w3.org/1999/xlink" preserveAspectRatio="xMidYMid" width="98" height="92" viewBox="0 0 98 92">
  <defs>
    <style>
      .cls-1 {
        fill: #00be00;
        fill-rule: evenodd;
      }
    </style>
  </defs>
  <path d="M98.408,55.884 L81.089,88.635 C80.240,90.265 77.839,91.986 75.984,91.986 L6.531,92.000 C5.064,92.000 3.657,91.418 2.620,90.382 C1.583,89.345 1.001,87.940 1.001,86.474 L1.012,32.584 C1.012,29.536 3.485,27.063 6.535,27.060 L11.613,27.055 L11.613,31.763 L8.216,31.763 C7.551,31.763 6.912,32.027 6.442,32.497 C5.972,32.967 5.707,33.605 5.707,34.270 L5.712,84.788 C5.712,86.173 6.836,87.295 8.221,87.295 L11.700,87.295 L28.114,54.115 C29.042,52.262 30.794,50.765 32.646,50.765 L72.844,50.765 L72.857,37.412 C75.483,37.655 77.553,39.831 77.553,42.516 L77.553,50.765 L95.990,50.765 C98.167,50.787 100.000,52.938 98.408,55.884 ZM14.815,70.592 C14.665,54.078 14.815,4.531 14.815,4.531 C14.815,2.031 16.850,-0.000 19.349,-0.000 L55.658,-0.000 C56.238,-0.000 56.793,0.243 57.186,0.671 L68.924,13.415 C69.277,13.798 69.474,14.301 69.474,14.821 L69.474,47.835 L65.666,47.835 L65.666,17.672 C65.666,17.150 65.242,16.726 64.719,16.726 L55.734,16.726 C54.684,16.726 53.828,15.873 53.828,14.825 L53.828,4.751 C53.828,4.230 53.404,3.806 52.882,3.806 L19.352,3.806 C18.951,3.806 18.625,4.131 18.625,4.531 L18.625,66.439 L15.711,72.330 C15.711,72.328 14.830,72.265 14.815,70.592 ZM57.641,12.922 L63.297,12.922 L57.641,6.779 L57.641,12.922 ZM59.703,20.602 L24.612,20.602 C23.319,20.602 22.269,21.652 22.269,22.943 C22.269,24.234 23.320,25.285 24.612,25.285 L59.703,25.285 C60.997,25.285 62.049,24.233 62.049,22.943 C62.048,21.653 60.995,20.602 59.703,20.602 ZM62.048,36.578 C62.048,35.287 60.995,34.239 59.703,34.239 L24.612,34.239 C23.319,34.239 22.269,35.289 22.269,36.578 C22.269,37.869 23.320,38.918 24.612,38.918 L59.703,38.918 C60.995,38.918 62.048,37.869 62.048,36.578 ZM22.269,50.306 C22.269,51.597 23.319,52.645 24.611,52.645 L25.452,52.645 C26.933,48.521 30.605,47.965 30.605,47.965 L24.611,47.965 C23.321,47.965 22.269,49.014 22.269,50.306 Z" class="cls-1"/>
</svg>
